<?xml version="1.0" encoding="UTF-8" standalone="no"?>
<!-- Created with Inkscape (http://www.inkscape.org/) -->

<svg
   xmlns:dc="http://purl.org/dc/elements/1.1/"
   xmlns:cc="http://creativecommons.org/ns#"
   xmlns:rdf="http://www.w3.org/1999/02/22-rdf-syntax-ns#"
   xmlns:svg="http://www.w3.org/2000/svg"
   xmlns="http://www.w3.org/2000/svg"
   xmlns:sodipodi="http://sodipodi.sourceforge.net/DTD/sodipodi-0.dtd"
   xmlns:inkscape="http://www.inkscape.org/namespaces/inkscape"
   width="263.1636mm"
   height="83.216095mm"
   viewBox="0 0 263.1636 83.216095"
   version="1.1"
   id="svg5650"
   inkscape:version="0.92.3 (2405546, 2018-03-11)"
   sodipodi:docname="tshirt.svg">
  <defs
     id="defs5644" />
  <sodipodi:namedview
     id="base"
     pagecolor="#ffffff"
     bordercolor="#666666"
     borderopacity="1.0"
     inkscape:pageopacity="0.0"
     inkscape:pageshadow="2"
     inkscape:zoom="0.43116941"
     inkscape:cx="-69.815733"
     inkscape:cy="320.40837"
     inkscape:document-units="mm"
     inkscape:current-layer="layer1"
     showgrid="false"
     inkscape:pagecheckerboard="false"
     inkscape:window-width="1920"
     inkscape:window-height="1055"
     inkscape:window-x="1366"
     inkscape:window-y="0"
     inkscape:window-maximized="1"
     fit-margin-top="0"
     fit-margin-left="0"
     fit-margin-right="0"
     fit-margin-bottom="0" />
  <metadata
     id="metadata5647">
    <rdf:RDF>
      <cc:Work
         rdf:about="">
        <dc:format>image/svg+xml</dc:format>
        <dc:type
           rdf:resource="http://purl.org/dc/dcmitype/StillImage" />
        <dc:title></dc:title>
      </cc:Work>
    </rdf:RDF>
  </metadata>
  <g
     inkscape:label="Layer 1"
     inkscape:groupmode="layer"
     id="layer1"
     transform="translate(-16.918194,-150.39195)">
    <g
       id="g5668"
       transform="translate(107.92943,58.584029)"
       inkscape:export-xdpi="96"
       inkscape:export-ydpi="96">
      <path
         id="text5298-61"
         d="m -39.193955,105.75078 c -3.032252,0.002 -6.001065,0.0141 -8.73202,0.0141 -2.719094,0 -5.083474,0.17266 -7.182123,0.47709 v 0.32558 c -0.07815,-0.10007 -0.154964,-0.20225 -0.23523,-0.29739 -6.554404,0.99202 -10.284577,3.39641 -12.679407,6.64927 -2.346959,3.18789 -3.516443,7.69914 -3.971621,13.1984 v 9.61074 c 0.634942,4.9011 2.636425,10.78626 6.504024,15.47482 v -8.58673 h 4.286462 c 2.480931,0 4.51004,-1.01985 6.095793,-3.03412 v 18.73029 c 1.982626,0.66525 4.165635,1.18088 6.504046,1.56375 v -19.14543 h 1.8405 c 1.058301,0 1.901941,0.54685 2.532422,1.64331 0.641779,1.09631 1.273175,3.14257 1.892401,6.1373 l 2.528959,12.24007 c 2.309989,0.12684 4.637947,0.21211 6.971088,0.23466 l -0.23178,-1.11745 c 0.270398,0.40943 0.55341,0.77532 0.840679,1.13127 4.90566,0.0352 9.525571,-0.0747 13.71732,-0.11769 0.927679,-1.17609 1.768822,-2.62426 2.5151,-4.36947 v 4.33832 c 0.0141,0 0.0423,0 0.0564,0 2.209959,0 4.23431,-0.27483 6.1096002,-0.76799 v -40.4911 l 5.808699,32.28837 H 0.09778817 L 5.9063362,119.59238 v 26.1615 c 4.2665778,-8.41787 6.0787378,-19.04022 6.1477278,-26.97452 v -0.75418 c -0.0712,-2.43455 -1.0923,-4.00641 -3.5567968,-5.70835 -1.45529,-1.00498 -3.461599,-1.90362 -5.80517,-2.69156 l -4.670449,25.92973 -5.047541,-28.175 c -2.828279,-0.42493 -5.8518292,-0.73395 -8.9707192,-0.96869 v 4.05468 c -0.71515,-1.67234 -1.519211,-3.06407 -2.40094,-4.2138 -4.509929,-0.27766 -9.12981,-0.39464 -13.69654,-0.44679 -1.061389,1.27165 -2.016069,2.88952 -2.850719,4.88152 -0.379621,0.91055 -0.714031,1.90144 -1.030949,2.92686 -0.379272,-2.55034 -1.010007,-4.60689 -1.906235,-6.13392 -0.382937,-0.65749 -0.81856,-1.23225 -1.31118,-1.72632 z m 13.776094,7.86369 c 1.992749,0 3.533389,1.73746 4.62547,5.21357 1.092089,3.47612 1.639858,8.36862 1.639858,14.67907 0,6.28374 -0.547557,11.1649 -1.639858,14.64101 -1.092081,3.47611 -2.632721,5.21357 -4.62547,5.21357 -1.981491,0 -3.519561,-1.73746 -4.611642,-5.21357 -1.092068,-3.47611 -1.639848,-8.35727 -1.639848,-14.64101 0,-6.31045 0.54777,-11.20295 1.639848,-14.67907 1.092081,-3.47611 2.630151,-5.21357 4.611642,-5.21357 z m -40.072492,1.08279 h 3.594523 c 1.26097,0 2.236589,0.72183 2.923363,2.16578 0.686737,1.44387 1.030957,3.50141 1.030957,6.17535 0,2.67394 -0.344178,4.74621 -1.030957,6.21693 -0.686739,1.44388 -1.662393,2.16564 -2.923363,2.16564 h -3.594523 z m 16.886301,0 h 2.733061 c 1.3623,0 2.337924,0.58772 2.923376,1.76444 0.596675,1.17651 0.896035,3.12968 0.896035,5.85704 0,2.75421 -0.299291,4.73 -0.896035,5.93322 -0.585473,1.20329 -1.561076,1.80595 -2.923376,1.80595 h -2.733061 z m 10.219637,18.52959 c -2.25e-4,0.0958 -0.0035,0.18392 -0.0035,0.28047 0,1.59616 0.04158,3.11509 0.103804,4.59779 -0.632547,-1.36678 -1.334243,-2.29044 -2.113814,-2.71227 0.765474,-0.5687 1.431221,-1.29956 2.013492,-2.16571 z"
         style="font-style:normal;font-variant:normal;font-weight:normal;font-stretch:normal;font-size:7.9616766px;line-height:1.25;font-family:sans-serif;font-variant-ligatures:normal;font-variant-position:normal;font-variant-caps:normal;font-variant-numeric:normal;font-variant-alternates:normal;font-feature-settings:normal;text-indent:0;text-align:start;text-decoration:none;text-decoration-line:none;text-decoration-style:solid;text-decoration-color:#000000;letter-spacing:0px;word-spacing:0px;text-transform:none;writing-mode:lr-tb;direction:ltr;text-orientation:mixed;dominant-baseline:auto;baseline-shift:baseline;text-anchor:start;white-space:normal;shape-padding:0;opacity:1;vector-effect:none;fill:#3e3f75;fill-opacity:1;stroke:none;stroke-width:1.33253074;stroke-linecap:butt;stroke-linejoin:miter;stroke-miterlimit:4;stroke-dasharray:none;stroke-dashoffset:0;stroke-opacity:1"
         inkscape:connector-curvature="0" />
      <path
         id="text5298-6-5"
         d="m 119.43539,105.76149 c -1.36897,5e-4 -2.80328,0.0282 -4.20683,0.0423 v 33.60301 c 0,4.94684 -0.44257,8.49222 -1.32851,10.63136 -0.8713,2.11244 -2.31003,3.16908 -4.31409,3.16908 -1.98959,0 -3.42482,-1.05664 -4.31061,-3.16908 -0.87145,-2.13914 -1.30782,-5.68452 -1.30782,-10.63136 v -33.33663 c -2.84461,0.11769 -5.660146,0.26075 -8.386076,0.49471 v 2.99945 c -0.35518,-0.77265 -0.75623,-1.47305 -1.21775,-2.0827 -0.19872,-0.26426 -0.41859,-0.50598 -0.63986,-0.74382 -3.33067,0.32981 -6.51785,0.75749 -9.40666,1.34233 -4.99637,1.01154 -9.12209,2.48642 -11.67961,4.25186 -0.1938,0.13319 -0.31854,0.26497 -0.49471,0.39745 v 25.28964 c 0.8868,2.83532 1.9569,5.60489 3.28317,8.15079 1.46148,2.80573 3.14186,5.32943 5.10292,7.46927 v -12.90771 h 2.37677 c 1.36502,0 2.45253,0.54685 3.26576,1.64331 0.82775,1.09631 1.64028,3.1425 2.43906,6.1373 l 3.13778,11.76954 c 1.65438,0.36926 3.42305,0.57081 5.32781,0.57081 1.12315,0 2.53511,0.0352 3.764036,0.0493 l -0.0148,-0.0634 c 0.0148,0.0211 0.0352,0.0423 0.0493,0.0634 5.34763,0.0712 11.34644,0.21071 17.4502,0 0.67369,-0.74333 1.28596,-1.58947 1.82667,-2.56006 0.27766,-0.49894 0.5377,-1.03367 0.78187,-1.5949 v 4.01662 c 2.73526,-0.14939 5.42239,-0.37067 7.95363,-0.74727 v -37.69214 l 10.064,34.94195 c 0.10366,-0.0493 0.21916,-0.0881 0.32204,-0.13883 5.07617,-2.48769 8.56574,-6.71396 10.80776,-11.25749 v -31.47887 c -0.28823,-0.50669 -0.58844,-1.00195 -0.92345,-1.45649 -1.60024,-2.17043 -3.7959,-3.96441 -7.02642,-5.21357 v 36.86193 l -11.15722,-38.74054 c -0.63917,-0.0211 -1.23267,-0.0634 -1.91314,-0.0634 -3.0146,0 -6.25493,-0.0141 -9.62462,-0.0141 z m -38.906576,8.93612 h 3.52875 c 1.75719,0 3.01587,0.58773 3.77098,1.76438 0.76967,1.17658 1.15204,3.12975 1.15204,5.85711 0,2.7542 -0.38195,4.72992 -1.15204,5.93321 -0.75511,1.20329 -2.01379,1.80596 -3.77098,1.80596 h -3.52875 z m 15.05264,15.52316 v 9.18185 c 0,0.91309 0.0211,1.79067 0.0493,2.65344 -0.48202,-1.36128 -0.96116,-2.49319 -1.43901,-3.37308 -0.90041,-1.71125 -1.92485,-2.80876 -3.07211,-3.29 1.96086,-1.12838 3.43751,-2.86831 4.4663,-5.17221 z"
         style="font-style:normal;font-variant:normal;font-weight:normal;font-stretch:normal;font-size:9.04232502px;line-height:1.25;font-family:sans-serif;font-variant-ligatures:normal;font-variant-position:normal;font-variant-caps:normal;font-variant-numeric:normal;font-variant-alternates:normal;font-feature-settings:normal;text-indent:0;text-align:start;text-decoration:none;text-decoration-line:none;text-decoration-style:solid;text-decoration-color:#000000;letter-spacing:0px;word-spacing:0px;text-transform:none;writing-mode:lr-tb;direction:ltr;text-orientation:mixed;dominant-baseline:auto;baseline-shift:baseline;text-anchor:start;white-space:normal;shape-padding:0;opacity:1;vector-effect:none;fill:#3e3f75;fill-opacity:1;stroke:none;stroke-width:1.51339686;stroke-linecap:butt;stroke-linejoin:miter;stroke-miterlimit:4;stroke-dasharray:none;stroke-dashoffset:0;stroke-opacity:1"
         inkscape:connector-curvature="0" />
      <path
         inkscape:connector-curvature="0"
         id="path3759-2-6-1-0-5"
         d="m -38.729588,100.59866 v -0.005 c 24.900776,0.007 56.711912,1.03803 56.711912,16.90784 0,18.13735 -7.88469,48.49524 -33.183135,48.49524 -12.64928,0 -33.455713,1.86325 -46.033973,-4.30104 -12.578902,-6.16422 -16.928781,-20.35598 -16.928781,-29.42451 0,-18.13686 3.99978,-31.65907 29.298229,-31.65907 3.162305,0 6.578446,-0.0141 10.135748,-0.0141 z m 158.601538,0 v 0.005 c 3.55729,-5.8e-4 6.97342,0.0141 10.13552,0.0141 25.29853,0 29.29823,13.52215 29.29823,31.65907 0,9.06846 -4.35085,23.25994 -16.92911,29.4243 -12.57898,6.16443 -33.38518,4.30147 -46.034056,4.30147 -25.29888,0 -33.18251,-30.35825 -33.18251,-48.49553 0,-15.87051 31.81093,-16.89967 56.711926,-16.90777 z m 2.30855,-8.776638 v -0.0141 c -28.418886,0.007 -63.932576,1.07271 -70.712566,15.974108 h -21.79365 c -7.85553,-17.265978 -54.286047,-15.950918 -83.557557,-15.950918 -32.059139,0 -37.127962,17.134408 -37.127962,40.118378 0,11.49217 5.513211,29.47652 21.453209,37.28842 15.939998,7.8119 42.307354,5.45106 58.337265,5.45106 23.479385,0 35.112485,-20.6342 39.662435,-40.70788 h 24.25907 c 4.54996,20.07368 16.18284,40.70788 39.66265,40.70788 16.029496,0 42.396006,2.36084 58.335996,-5.45106 15.94,-7.8119 21.45299,-25.79625 21.45299,-37.28842 0,-22.98397 -5.06839,-40.118378 -37.12773,-40.118378 -4.00745,0 -8.33592,-0.0141 -12.84415,-0.0141 z"
         style="display:inline;opacity:1;fill:#000000;fill-opacity:1;stroke:#3e3f75;stroke-width:0;stroke-linejoin:round;stroke-miterlimit:4;stroke-dasharray:none;stroke-opacity:1" />
      <path
         inkscape:connector-curvature="0"
         id="path3759-2-6-1-0-3-7"
         d="m -38.72958,100.59866 v -0.005 c 24.900768,0.007 56.711904,1.03803 56.711904,16.90784 0,18.13735 -7.88469,48.49524 -33.183135,48.49524 -12.64928,0 -33.455713,1.86325 -46.033973,-4.30104 -12.578895,-6.16422 -16.928774,-20.35598 -16.928774,-29.42451 0,-18.13686 3.99978,-31.65907 29.298235,-31.65907 3.1623,0 6.578449,-0.0141 10.135743,-0.0141 z m 158.60153,0 v 0.005 c 3.55729,-5.8e-4 6.97342,0.0141 10.13552,0.0141 25.29853,0 29.29823,13.52215 29.29823,31.65907 0,9.06846 -4.35085,23.25994 -16.92911,29.4243 -12.57898,6.16443 -33.38518,4.30147 -46.034056,4.30147 -25.29888,0 -33.18251,-30.35825 -33.18251,-48.49553 0,-15.87051 31.81093,-16.89967 56.711926,-16.90777 z m 2.30855,-8.776638 v -0.0141 c -28.418886,0.007 -63.932576,1.07271 -70.712566,15.974108 h -21.79365 c -7.85553,-17.265978 -54.286025,-15.950918 -83.557549,-15.950918 -32.05914,0 -37.127963,17.134408 -37.127963,40.118378 0,11.49217 5.513211,29.47652 21.453209,37.28842 15.940004,7.8119 42.307347,5.45106 58.337258,5.45106 23.479385,0 35.112485,-20.6342 39.662435,-40.70788 h 24.25907 c 4.54996,20.07368 16.18284,40.70788 39.66265,40.70788 16.029496,0 42.396006,2.36084 58.335996,-5.45106 15.94,-7.8119 21.45299,-25.79625 21.45299,-37.28842 0,-22.98397 -5.06839,-40.118378 -37.12773,-40.118378 -4.00745,0 -8.33592,-0.0141 -12.84415,-0.0141 z"
         style="display:inline;opacity:1;fill:#000000;fill-opacity:1;stroke:#3e3f75;stroke-width:0;stroke-linejoin:round;stroke-miterlimit:4;stroke-dasharray:none;stroke-opacity:1" />
    </g>
  </g>
</svg>
